<svg width="16" height="16" viewBox="0 0 16 16" fill="none" xmlns="http://www.w3.org/2000/svg">
<path d="M10.6667 2.83301C10.6667 3.65968 9.99334 4.33301 9.16668 4.33301H6.83334C6.42001 4.33301 6.04668 4.16635 5.77334 3.89301C5.50001 3.61968 5.33334 3.24635 5.33334 2.83301C5.33334 2.00635 6.00668 1.33301 6.83334 1.33301H9.16668C9.58001 1.33301 9.95334 1.49968 10.2267 1.77301C10.5 2.04635 10.6667 2.41968 10.6667 2.83301Z" fill="#003945"/>
<path d="M12.5533 3.3538C12.4 3.22713 12.2267 3.12713 12.04 3.0538C11.8467 2.98047 11.6533 3.1338 11.6133 3.3338C11.3867 4.4738 10.38 5.3338 9.16666 5.3338H6.83332C6.16666 5.3338 5.53999 5.0738 5.06666 4.60047C4.71999 4.2538 4.47999 3.8138 4.38666 3.34047C4.34666 3.14047 4.14666 2.98047 3.95332 3.06047C3.17999 3.3738 2.66666 4.08047 2.66666 5.50046V12.0005C2.66666 14.0005 3.85999 14.6671 5.33332 14.6671H10.6667C12.14 14.6671 13.3333 14.0005 13.3333 12.0005V5.50046C13.3333 4.4138 13.0333 3.74713 12.5533 3.3538ZM5.33332 8.16713H7.99999C8.27332 8.16713 8.49999 8.3938 8.49999 8.66713C8.49999 8.94046 8.27332 9.16713 7.99999 9.16713H5.33332C5.05999 9.16713 4.83332 8.94046 4.83332 8.66713C4.83332 8.3938 5.05999 8.16713 5.33332 8.16713ZM10.6667 11.8338H5.33332C5.05999 11.8338 4.83332 11.6071 4.83332 11.3338C4.83332 11.0605 5.05999 10.8338 5.33332 10.8338H10.6667C10.94 10.8338 11.1667 11.0605 11.1667 11.3338C11.1667 11.6071 10.94 11.8338 10.6667 11.8338Z" fill="#003945"/>
</svg>
