<svg width="16" height="16" viewBox="0 0 16 16" fill="none" xmlns="http://www.w3.org/2000/svg">
<path d="M10.7933 1.33301H5.20668C2.78001 1.33301 1.33334 2.77968 1.33334 5.20635V10.7863C1.33334 13.2196 2.78001 14.6663 5.20668 14.6663H10.7867C13.2133 14.6663 14.66 13.2196 14.66 10.793V5.20635C14.6667 2.77968 13.22 1.33301 10.7933 1.33301ZM6.99334 11.1463C6.76668 11.373 6.46668 11.5263 6.10001 11.573L5.20001 11.673C4.70668 11.7263 4.28668 11.3063 4.34001 10.8063L4.44001 9.89968C4.52668 9.09301 5.20001 8.57968 5.91334 8.56635C5.98001 8.55968 6.06001 8.56635 6.13334 8.57301C6.44668 8.61301 6.74668 8.75968 7.00001 9.00635C7.24668 9.25301 7.38668 9.54635 7.42668 9.84635C7.43334 9.91968 7.44001 9.99301 7.44001 10.0596C7.44001 10.473 7.28668 10.853 6.99334 11.1463ZM11.6267 5.03301C11.1467 6.23301 10.0467 7.80635 9.00001 8.83301C8.84668 7.88635 8.09334 7.13968 7.13334 7.00635C8.16001 5.95301 9.74668 4.83968 10.9533 4.35301C11.1667 4.27301 11.38 4.33301 11.5133 4.46635C11.6467 4.61301 11.7133 4.81968 11.6267 5.03301Z" fill="#7AE695"/>
</svg>
