<svg width="24" height="24" viewBox="0 0 24 24" fill="none" xmlns="http://www.w3.org/2000/svg">
<g clip-path="url(#clip0_1413_12426)">
<path d="M16.5 3.30859C14.76 3.30859 13.09 4.07596 12 5.28859C10.91 4.07596 9.24 3.30859 7.5 3.30859C4.42 3.30859 2 5.60122 2 8.51912C2 12.1002 5.4 15.0181 10.55 19.4517L12 20.6928L13.45 19.4423C18.6 15.0181 22 12.1002 22 8.51912C22 5.60122 19.58 3.30859 16.5 3.30859ZM12.1 18.0402L12 18.1349L11.9 18.0402C7.14 13.957 4 11.257 4 8.51912C4 6.62438 5.5 5.20333 7.5 5.20333C9.04 5.20333 10.54 6.14122 11.07 7.43912H12.94C13.46 6.14122 14.96 5.20333 16.5 5.20333C18.5 5.20333 20 6.62438 20 8.51912C20 11.257 16.86 13.957 12.1 18.0402Z" fill="#F5F5F5"/>
</g>
<defs>
<clipPath id="clip0_1413_12426">
<rect width="20" height="18" fill="white" transform="translate(2 3)"/>
</clipPath>
</defs>
</svg>
