<svg width="136" height="25" viewBox="0 0 136 25" fill="none" xmlns="http://www.w3.org/2000/svg">
<path d="M12.62 21.3096C12.28 21.4296 11.72 21.4296 11.38 21.3096C8.48 20.3196 2 16.1896 2 9.18961C2 6.09961 4.49 3.59961 7.56 3.59961C9.38 3.59961 10.99 4.47961 12 5.83961C13.01 4.47961 14.63 3.59961 16.44 3.59961C19.51 3.59961 22 6.09961 22 9.18961C22 16.1896 15.52 20.3196 12.62 21.3096Z" stroke="#F5F5F5" stroke-width="1.5" stroke-linecap="round" stroke-linejoin="round"/>
<path d="M63.5 8.16952V7.19952C63.5 4.94952 65.31 2.73952 67.56 2.52952C70.24 2.26952 72.5 4.37952 72.5 7.00952V8.38952" stroke="#F5F5F5" stroke-width="1.5" stroke-miterlimit="10" stroke-linecap="round" stroke-linejoin="round"/>
<path d="M64.9998 22.5H70.9998C75.0198 22.5 75.7398 20.89 75.9498 18.93L76.6998 12.93C76.9698 10.49 76.2698 8.5 71.9998 8.5H63.9998C59.7298 8.5 59.0298 10.49 59.2998 12.93L60.0498 18.93C60.2598 20.89 60.9798 22.5 64.9998 22.5Z" stroke="#F5F5F5" stroke-width="1.5" stroke-miterlimit="10" stroke-linecap="round" stroke-linejoin="round"/>
<path d="M71.4956 12.5H71.5046" stroke="#F5F5F5" stroke-width="2" stroke-linecap="round" stroke-linejoin="round"/>
<path d="M64.4946 12.5H64.5036" stroke="#F5F5F5" stroke-width="2" stroke-linecap="round" stroke-linejoin="round"/>
<path d="M124.12 13.2805C124.05 13.2705 123.96 13.2705 123.88 13.2805C122.12 13.2205 120.72 11.7805 120.72 10.0105C120.72 8.20047 122.18 6.73047 124 6.73047C125.81 6.73047 127.28 8.20047 127.28 10.0105C127.27 11.7805 125.88 13.2205 124.12 13.2805Z" stroke="#F5F5F5" stroke-width="1.5" stroke-linecap="round" stroke-linejoin="round"/>
<path d="M130.74 19.8805C128.96 21.5105 126.6 22.5005 124 22.5005C121.4 22.5005 119.04 21.5105 117.26 19.8805C117.36 18.9405 117.96 18.0205 119.03 17.3005C121.77 15.4805 126.25 15.4805 128.97 17.3005C130.04 18.0205 130.64 18.9405 130.74 19.8805Z" stroke="#F5F5F5" stroke-width="1.5" stroke-linecap="round" stroke-linejoin="round"/>
<path d="M124 22.5C129.523 22.5 134 18.0228 134 12.5C134 6.97715 129.523 2.5 124 2.5C118.477 2.5 114 6.97715 114 12.5C114 18.0228 118.477 22.5 124 22.5Z" stroke="#F5F5F5" stroke-width="1.5" stroke-linecap="round" stroke-linejoin="round"/>
</svg>
