<svg xmlns="http://www.w3.org/2000/svg" xmlns:xlink="http://www.w3.org/1999/xlink" viewBox="0 0 80 80"><defs><style>.cls-1{fill:url(#linear-gradient);}</style><linearGradient id="linear-gradient" x1="4.49" y1="40" x2="75.51" y2="40" gradientUnits="userSpaceOnUse"><stop offset="0" stop-color="#a6a8b3"/><stop offset="1" stop-color="#a6a8b3"/></linearGradient></defs><g id="Layer_1" data-name="Layer 1"><circle cx="40" cy="40" r="37.78"/><circle class="cls-1" cx="40" cy="40" r="35.51"/><path d="M22.78,22.58l-3.53,2.11a.21.21,0,0,0-.08.28l5.72,10.72c1.23,2.33,3,2.23,4.38,1.55a6.27,6.27,0,0,0,2-1.77L34.39,31c.54-.69,1,0,1.07.08l3.41,4.77c3,3.66,5.57.75,6.65,0,.72-.5,4-3.8,6-5.68a.51.51,0,0,1,.86.52C48.31,43.75,35.91,57.06,29.81,63.26a.36.36,0,0,0,0,.49,21.78,21.78,0,0,0,2.73,2.67.46.46,0,0,0,.49,0c8.88-9.92,11.27-13.15,15.43-19.16A65.31,65.31,0,0,0,55.14,34.6c1.61-3.94,2.18-7.8.69-9.36-2.6-2.53-5.27-.44-6.35.54l-7.09,6.54a.65.65,0,0,1-.93,0c-1.05-1.17-3-4.06-4.43-6.15-1.72-2.44-3.75-.78-4.56.35l-3.49,5c-.34.46-.7.63-1.12-.1l-4.78-8.76A.22.22,0,0,0,22.78,22.58Z"/><circle cx="57.46" cy="19.14" r="3.68"/></g></svg>